# xmcd
#
# Track frame offsets:
#	150
#	18864
#	33674
#	47277
#	70744
#	87071
#	103251
#	111442
#	136270
#	149470
#	164272
#	179945
#	190147
#	206632
#	222122
#
# Disc length: 3215 seconds
#
# Revision: 1
# Processed by: cddbd v1.5.2PL0 Copyright (c) Steve Scherf et al.
# Submitted via: audiograbber 1.83.01
#
DISCID=da0c8d0f
DTITLE=Sons of the Rio Grande - The Westerner
DYEAR=2009
DGENRE=Country
TTITLE0=The Westerner
TTITLE1=Trees
TTITLE2=Carry Me Back To the Lone Prairie
TTITLE3=Stay in the Saddle
TTITLE4=Lonely River
TTITLE5=Pride on the Prairie
TTITLE6=Old Joe Clark
TTITLE7=The Steward
TTITLE8=Whoopi-Ti-Yi-Yo
TTITLE9=Song of Wyoming
TTITLE10=I Outgrew the Wagon
TTITLE11=Poor Old Bill
TTITLE12=My Rifle, Pony and Me
TTITLE13=God Bless America - God Bless the USA
TTITLE14=For Life
EXTD=
EXTT0=
EXTT1=
EXTT2=
EXTT3=
EXTT4=
EXTT5=
EXTT6=
EXTT7=
EXTT8=
EXTT9=
EXTT10=
EXTT11=
EXTT12=
EXTT13=
EXTT14=
PLAYORDER=
